<svg xmlns="http://www.w3.org/2000/svg" xmlns:xlink="http://www.w3.org/1999/xlink" viewBox="0 0 430 430" width="430" height="430" preserveAspectRatio="xMidYMid meet" style="width: 100%; height: 100%; transform: translate3d(0px, 0px, 0px); content-visibility: visible;"><defs><clipPath id="__lottie_element_4736"><rect width="430" height="430" x="0" y="0"/></clipPath><clipPath id="__lottie_element_4738"><path d="M0,0 L430,0 L430,430 L0,430z"/></clipPath></defs><g clip-path="url(#__lottie_element_4736)"><g clip-path="url(#__lottie_element_4738)" transform="matrix(1,0,0,1,0,0)" opacity="1" style="display: block;"><g transform="matrix(1,0,0,1,151.73500061035156,281.1579895019531)" opacity="1" style="display: block;"><g opacity="1" transform="matrix(1,0,0,1,0,0)"><path class="quaternary" fill="rgb(75,179,253)" fill-opacity="1" d=" M-66.2959976196289,-56.32400131225586 C-66.2959976196289,-56.32400131225586 -66.2959976196289,-45.676998138427734 -66.2959976196289,-45.676998138427734 C-66.2959976196289,-31.71500015258789 -55.04600143432617,-20.46500015258789 -41.185001373291016,-20.46500015258789 C-41.185001373291016,-20.46500015258789 23.60099983215332,-20.46500015258789 23.60099983215332,-20.46500015258789 C23.60099983215332,-20.46500015258789 32.37699890136719,56.32400131225586 32.37699890136719,56.32400131225586 C32.37699890136719,56.32400131225586 66.2959976196289,56.32400131225586 66.2959976196289,56.32400131225586 C66.2959976196289,56.32400131225586 64.28099822998047,45.224998474121094 64.28099822998047,45.224998474121094 C64.28099822998047,45.224998474121094 56.94900131225586,-37.34000015258789 56.94900131225586,-37.34000015258789 C56.34600067138672,-47.887001037597656 47.70800018310547,-56.02299880981445 37.1609992980957,-56.12300109863281 C37.1609992980957,-56.12300109863281 -9.343999862670898,-56.32400131225586 -9.343999862670898,-56.32400131225586"/></g></g><g transform="matrix(1,0,0,1,142.2760009765625,281.1579895019531)" opacity="0.5" style="mix-blend-mode: multiply; display: block;"><g opacity="1" transform="matrix(1,0,0,1,0,0)"><path class="quaternary" fill="rgb(75,179,253)" fill-opacity="1" d=" M-41.83700180053711,-45.676998138427734 C-41.83700180053711,-31.71500015258789 -30.586999893188477,-20.46500015258789 -16.72599983215332,-20.46500015258789 C-16.72599983215332,-20.46500015258789 -31.72599983215332,-20.46500015258789 -31.72599983215332,-20.46500015258789 C-45.58700180053711,-20.46500015258789 -56.83700180053711,-31.71500015258789 -56.83700180053711,-45.676998138427734 C-56.83700180053711,-45.676998138427734 -56.83700180053711,-56.32400131225586 -56.83700180053711,-56.32400131225586 C-56.83700180053711,-56.32400131225586 -41.83700180053711,-56.32400131225586 -41.83700180053711,-56.32400131225586 C-41.83700180053711,-56.32400131225586 -41.83700180053711,-45.676998138427734 -41.83700180053711,-45.676998138427734z M56.83700180053711,56.32400131225586 C56.83700180053711,56.32400131225586 41.83700180053711,56.32400131225586 41.83700180053711,56.32400131225586 C41.83700180053711,56.32400131225586 33.06100082397461,-20.46500015258789 33.06100082397461,-20.46500015258789 C33.06100082397461,-20.46500015258789 48.06100082397461,-20.46500015258789 48.06100082397461,-20.46500015258789 C48.06100082397461,-20.46500015258789 56.83700180053711,56.32400131225586 56.83700180053711,56.32400131225586z"/></g></g><g transform="matrix(1,0,0,1,207.6929931640625,337.48199462890625)" opacity="1" style="display: block;"><g opacity="1" transform="matrix(1,0,0,1,0,0)"><path class="secondary" fill="rgb(58,51,71)" fill-opacity="1" d=" M8.322999954223633,-11.098999977111816 C8.322999954223633,-11.098999977111816 29.014999389648438,-2.1600000858306885 24.093000411987305,11.098999977111816 C24.093000411987305,11.098999977111816 -19.63599967956543,11.098999977111816 -19.63599967956543,11.098999977111816 C-21.160999298095703,11.098999977111816 -22.44300079345703,9.954999923706055 -22.615999221801758,8.4399995803833 C-22.615999221801758,8.4399995803833 -24.849000930786133,-11.098999977111816 -24.849000930786133,-11.098999977111816 C-24.849000930786133,-11.098999977111816 8.322999954223633,-11.098999977111816 8.322999954223633,-11.098999977111816z"/></g></g><g transform="matrix(1,0,0,1,191.61199951171875,337.48199462890625)" opacity="0.5" style="mix-blend-mode: multiply; display: block;"><g opacity="1" transform="matrix(1,0,0,1,0,0)"><path class="secondary" fill="rgb(58,51,71)" fill-opacity="1" d=" M6.23199987411499,-11.098999977111816 C6.23199987411499,-11.098999977111816 -8.767999649047852,-11.098999977111816 -8.767999649047852,-11.098999977111816 C-8.767999649047852,-11.098999977111816 -6.534999847412109,8.4399995803833 -6.534999847412109,8.4399995803833 C-6.361999988555908,9.954999923706055 -5.079999923706055,11.098999977111816 -3.555000066757202,11.098999977111816 C-3.555000066757202,11.098999977111816 8.767999649047852,11.098999977111816 8.767999649047852,11.098999977111816 C8.767999649047852,11.098999977111816 6.23199987411499,-11.098999977111816 6.23199987411499,-11.098999977111816z"/></g></g><g transform="matrix(1,0,0,1,-35,-35.00001525878906)" opacity="1" style="display: block;"><g opacity="1" transform="matrix(1,0,0,1,129.9459991455078,270.0150146484375)"><path stroke-linecap="round" stroke-linejoin="round" fill-opacity="0" class="primary" stroke="rgb(18,19,49)" stroke-opacity="1" stroke-width="7" d=" M-53.409000396728516,-113.41799926757812 C-53.409000396728516,-113.41799926757812 -43.94900131225586,-66.12100219726562 -43.94900131225586,-66.12100219726562 C-41.36600112915039,-53.20600128173828 -40.064998626708984,-40.06800079345703 -40.064998626708984,-26.898000717163086 C-40.064998626708984,-26.898000717163086 -40.064998626708984,0.9160000085830688 -40.064998626708984,0.9160000085830688 C-40.064998626708984,14.722999572753906 -28.871999740600586,25.916000366210938 -15.0649995803833,25.916000366210938 C-15.0649995803833,25.916000366210938 53.409000396728516,25.916000366210938 53.409000396728516,25.916000366210938 C53.409000396728516,25.916000366210938 53.409000396728516,88.41799926757812 53.409000396728516,88.41799926757812 C53.409000396728516,102.2249984741211 42.215999603271484,113.41799926757812 28.409000396728516,113.41799926757812 C28.409000396728516,113.41799926757812 -40.064998626708984,113.41799926757812 -40.064998626708984,113.41799926757812"/></g></g><g transform="matrix(1,0,0,1,295.7179870605469,201.17999267578125)" opacity="1" style="display: block;"><g opacity="1" transform="matrix(1,0,0,1,0,0)"><path class="quinary" fill="rgb(178,104,54)" fill-opacity="1" d=" M-80.40499877929688,-10.295999526977539 C-80.40499877929688,-10.295999526977539 -80.40499877929688,10.409000396728516 -80.40499877929688,10.409000396728516 C-80.40499877929688,12.065999984741211 -79.06199645996094,13.409000396728516 -77.40499877929688,13.409000396728516 C-77.40499877929688,13.409000396728516 77.40499877929688,13.409000396728516 77.40499877929688,13.409000396728516 C79.06199645996094,13.409000396728516 80.40499877929688,12.065999984741211 80.40499877929688,10.409000396728516 C80.40499877929688,10.409000396728516 80.40499877929688,-10.409000396728516 80.40499877929688,-10.409000396728516 C80.40499877929688,-12.065999984741211 79.06199645996094,-13.409000396728516 77.40499877929688,-13.409000396728516 C77.40499877929688,-13.409000396728516 -66.14199829101562,-13.409000396728516 -66.14199829101562,-13.409000396728516"/></g></g><g transform="matrix(1,0,0,1,225.31199645996094,201.17999267578125)" opacity="0.5" style="mix-blend-mode: multiply; display: block;"><g opacity="1" transform="matrix(1,0,0,1,0,0)"><path class="quinary" fill="rgb(178,104,54)" fill-opacity="1" d=" M4.263000011444092,-13.409000396728516 C4.263000011444092,-13.409000396728516 10,-13.409000396728516 10,-13.409000396728516 C10,-13.409000396728516 10,13.409000396728516 10,13.409000396728516 C10,13.409000396728516 -7,13.409000396728516 -7,13.409000396728516 C-8.656999588012695,13.409000396728516 -10,12.065999984741211 -10,10.409000396728516 C-10,10.409000396728516 -10,-10.295999526977539 -10,-10.295999526977539 C-10,-10.295999526977539 4.263000011444092,-13.409000396728516 4.263000011444092,-13.409000396728516z"/></g></g><g transform="matrix(1,0,0,1,301.85101318359375,154.2729949951172)" opacity="1" style="display: block;"><g opacity="1" transform="matrix(1,0,0,1,0,0)"><path class="secondary" fill="rgb(58,51,71)" fill-opacity="1" d=" M-32.9010009765625,33.49800109863281 C-32.9010009765625,33.49800109863281 11.194000244140625,33.49800109863281 11.194000244140625,33.49800109863281 C11.194000244140625,33.49800109863281 32.737998962402344,-29.527999877929688 32.737998962402344,-29.527999877929688 C33.40299987792969,-31.475000381469727 31.95599937438965,-33.49800109863281 29.89900016784668,-33.49800109863281 C29.89900016784668,-33.49800109863281 -7.855000019073486,-33.49800109863281 -7.855000019073486,-33.49800109863281 C-9.137999534606934,-33.49800109863281 -10.279000282287598,-32.68199920654297 -10.694000244140625,-31.468000411987305 C-10.694000244140625,-31.468000411987305 -32.9010009765625,33.49800109863281 -32.9010009765625,33.49800109863281z"/></g></g><g transform="matrix(1,0,0,1,287.8999938964844,154.2729949951172)" opacity="0.5" style="mix-blend-mode: multiply; display: block;"><g opacity="1" transform="matrix(1,0,0,1,0,0)"><path class="secondary" fill="rgb(58,51,71)" fill-opacity="1" d=" M-3.9509999752044678,33.49800109863281 C-3.9509999752044678,33.49800109863281 -18.951000213623047,33.49800109863281 -18.951000213623047,33.49800109863281 C-18.951000213623047,33.49800109863281 3.256999969482422,-31.468000411987305 3.256999969482422,-31.468000411987305 C3.671999931335449,-32.68199920654297 4.813000202178955,-33.49800109863281 6.0960001945495605,-33.49800109863281 C6.0960001945495605,-33.49800109863281 18.951000213623047,-33.49800109863281 18.951000213623047,-33.49800109863281 C18.951000213623047,-33.49800109863281 -3.9509999752044678,33.49800109863281 -3.9509999752044678,33.49800109863281z"/></g></g><g transform="matrix(1,0,0,1,-35,-35)" opacity="1" style="display: block;"><g opacity="1" transform="matrix(1,0,0,1,336.7309875488281,189.9550018310547)"><path stroke-linecap="round" stroke-linejoin="round" fill-opacity="0" class="primary" stroke="rgb(18,19,49)" stroke-opacity="1" stroke-width="7" d=" M-18.697999954223633,194.01100158691406 C-18.697999954223633,194.01100158691406 53.236000061035156,194.01100158691406 53.236000061035156,194.01100158691406 C64.28199768066406,194.01100158691406 73.23600006103516,185.0570068359375 73.23600006103516,174.01100158691406 C73.23600006103516,174.01100158691406 73.23600006103516,60.577999114990234 73.23600006103516,60.577999114990234 M-33.108001708984375,32.858001708984375 C-33.108001708984375,32.858001708984375 -10.550000190734863,-33.358001708984375 -10.550000190734863,-33.358001708984375 C-10.550000190734863,-33.358001708984375 33.358001708984375,-33.358001708984375 33.358001708984375,-33.358001708984375 C33.358001708984375,-33.358001708984375 10.800000190734863,32.858001708984375 10.800000190734863,32.858001708984375 M-86.73100280761719,40.60599899291992 C-86.73100280761719,36.48899841308594 -86.73100280761719,33.358001708984375 -86.73100280761719,33.358001708984375 C-86.73100280761719,33.358001708984375 73.38800048828125,33.358001708984375 73.38800048828125,33.358001708984375 C73.38800048828125,33.358001708984375 73.38800048828125,60.04499816894531 73.38800048828125,60.04499816894531 C73.38800048828125,60.04499816894531 73.38800048828125,60.04499816894531 73.38800048828125,60.04499816894531 C73.38800048828125,60.04499816894531 -86.73100280761719,60.04499816894531 -86.73100280761719,60.04499816894531 C-86.73100280761719,60.04499816894531 -86.73100280761719,48.50899887084961 -86.73100280761719,40.60599899291992"/></g></g><g transform="matrix(1,0,0,1,-35,-35.00001525878906)" opacity="1" style="display: block;"><g opacity="1" transform="matrix(1,0,0,1,129.9459991455078,270.0150146484375)"><path stroke-linecap="round" stroke-linejoin="round" fill-opacity="0" class="primary" stroke="rgb(18,19,49)" stroke-opacity="1" stroke-width="7" d=" M47.45800018310547,-9.770999908447266 C47.45800018310547,-9.770999908447266 93.7770004272461,-9.562000274658203 93.7770004272461,-9.562000274658203 C104.24299621582031,-9.506999969482422 112.86499786376953,-1.3289999961853027 113.47200012207031,9.119000434875488 C113.47200012207031,9.119000434875488 120.78299713134766,91.36599731445312 120.78299713134766,91.36599731445312 C120.78299713134766,91.36599731445312 141.42599487304688,100.31099700927734 136.49400329589844,113.41799926757812 C136.49400329589844,113.41799926757812 90.29900360107422,113.41799926757812 90.29900360107422,113.41799926757812 C90.29900360107422,113.41799926757812 80.30699920654297,25.916000366210938 80.30699920654297,25.916000366210938 C80.30699920654297,25.916000366210938 15.800999641418457,25.916000366210938 15.800999641418457,25.916000366210938 C1.965999960899353,25.916000366210938 -9.23799991607666,14.680999755859375 -9.199000358581543,0.8460000157356262 C-9.199000358581543,0.8460000157356262 -9.168999671936035,-9.772000312805176 -9.168999671936035,-9.772000312805176"/></g></g><g transform="matrix(1,0,0,1,-35,-35)" opacity="1" style="display: block;"><path class="tertiary" fill="rgb(44,165,141)" fill-opacity="1" d=" M188.89,203.39 C188.89,203.39 177.39,260.24 177.39,260.24 C177.39,260.24 120.78,260.24 120.78,260.24 C120.78,260.24 137.13,179.34 137.13,179.34 C139.75,166.4 151.13,157.1 164.33,157.1 C171.22,157.1 177.43,159.58 182.22,163.64 M181.34,162.98 C181.34,162.98 218.3,190.56 218.3,190.56 C218.3,190.56 240.96,195.82 240.96,195.82 C240.96,195.82 271.84,202.99 271.84,202.99 C271.84,202.99 274.6,224.76 253.62,227.28 C253.62,227.28 206.12,216.2 206.12,216.2 C206.12,216.2 165.96,186.35 165.96,186.35 C165.96,186.35 165.93,186.33 165.93,186.33 C165.93,186.33 161.19,182.8 161.19,182.8"/><g opacity="1" transform="matrix(1,0,0,1,216.572998046875,195.1269989013672)"/></g><g transform="matrix(1,0,0,1,111.11599731445312,173.05599975585938)" opacity="0.5" style="mix-blend-mode: multiply; display: block;"><g opacity="1" transform="matrix(1,0,0,1,0,0)"><path class="tertiary" fill="rgb(44,165,141)" fill-opacity="1" d=" M18.115999221801758,-51.77899932861328 C20.750999450683594,-51.77899932861328 23.284000396728516,-51.43000030517578 25.677000045776367,-50.77199935913086 C15.758999824523926,-48.029998779296875 7.901000022888184,-39.930999755859375 5.795000076293945,-29.479999542236328 C5.795000076293945,-29.479999542236328 -10.677000045776367,51.77899932861328 -10.677000045776367,51.77899932861328 C-10.677000045776367,51.77899932861328 -25.677000045776367,51.77899932861328 -25.677000045776367,51.77899932861328 C-25.677000045776367,51.77899932861328 -9.204999923706055,-29.479999542236328 -9.204999923706055,-29.479999542236328 C-6.5929999351501465,-42.4370002746582 4.85699987411499,-51.77899932861328 18.115999221801758,-51.77899932861328z"/></g></g><g transform="matrix(1,0,0,1,-35,-35)" opacity="1" style="display: block;"><g opacity="1" transform="matrix(1,0,0,1,216.572998046875,195.1269989013672)"><path stroke-linecap="round" stroke-linejoin="round" fill-opacity="0" class="primary" stroke="rgb(18,19,49)" stroke-opacity="1" stroke-width="7" d=" M-27.683000564575195,8.265000343322754 C-27.683000564575195,8.265000343322754 -39.18299865722656,65.11499786376953 -39.18299865722656,65.11499786376953 C-39.18299865722656,65.11499786376953 -95.79299926757812,65.11499786376953 -95.79299926757812,65.11499786376953 C-95.79299926757812,65.11499786376953 -79.44300079345703,-15.78499984741211 -79.44300079345703,-15.78499984741211 C-76.822998046875,-28.725000381469727 -65.44300079345703,-38.025001525878906 -52.24300003051758,-38.025001525878906 C-45.35300064086914,-38.025001525878906 -39.143001556396484,-35.54499816894531 -34.35300064086914,-31.485000610351562 M-35.236000061035156,-32.150001525878906 C-35.236000061035156,-32.150001525878906 1.725000023841858,-4.567999839782715 1.725000023841858,-4.567999839782715 C1.725000023841858,-4.567999839782715 24.388999938964844,0.6949999928474426 24.388999938964844,0.6949999928474426 C24.388999938964844,0.6949999928474426 55.266998291015625,7.86299991607666 55.266998291015625,7.86299991607666 C55.266998291015625,7.86299991607666 58.0260009765625,29.632999420166016 37.04499816894531,32.150001525878906 C37.04499816894531,32.150001525878906 -10.454000473022461,21.077999114990234 -10.454000473022461,21.077999114990234 C-10.454000473022461,21.077999114990234 -50.6150016784668,-8.781000137329102 -50.6150016784668,-8.781000137329102 C-50.6150016784668,-8.781000137329102 -50.638999938964844,-8.795999526977539 -50.638999938964844,-8.795999526977539 C-50.638999938964844,-8.795999526977539 -55.387001037597656,-12.331000328063965 -55.387001037597656,-12.331000328063965"/></g></g><g transform="matrix(1,0,0,1,151.56298828125,81.70399475097656)" opacity="1" style="display: block;"><g opacity="1" transform="matrix(1,0,0,1,0,0)"><path class="senary" fill="rgb(249,201,192)" fill-opacity="1" d=" M8.102999687194824,27.922000885009766 C8.102999687194824,27.922000885009766 -9.574999809265137,23.201000213623047 -9.574999809265137,23.201000213623047 C-19.117000579833984,20.690000534057617 -24.843000411987305,10.746999740600586 -22.231000900268555,1.1039999723434448 C-22.231000900268555,1.1039999723434448 -17.91200065612793,-14.866999626159668 -17.91200065612793,-14.866999626159668 C-15.401000022888184,-24.409000396728516 -5.456999778747559,-30.034000396728516 4.085000038146973,-27.523000717163086 C4.085000038146973,-27.523000717163086 9.609999656677246,-26.016000747680664 9.609999656677246,-26.016000747680664 C19.152000427246094,-23.5049991607666 24.777000427246094,-13.560999870300293 22.266000747680664,-4.019000053405762 C22.266000747680664,-4.019000053405762 14.732000350952148,24.104999542236328 14.732000350952148,24.104999542236328 C13.928000450134277,27.01799964904785 10.914999961853027,28.72599983215332 8.102999687194824,27.922000885009766z"/></g></g><g transform="matrix(1,0,0,1,149.32899475097656,79.0469970703125)" opacity="0.5" style="mix-blend-mode: multiply; display: block;"><g opacity="1" transform="matrix(1,0,0,1,0,0)"><path class="senary" fill="rgb(249,201,192)" fill-opacity="1" d=" M-12.477999687194824,8.836999893188477 C-14.119999885559082,14.902000427246094 -12.46500015258789,21.084999084472656 -8.63700008392334,25.464000701904297 C-17.393999099731445,22.43000030517578 -22.48699951171875,12.958999633789062 -19.996000289916992,3.760999917984009 C-19.996000289916992,3.760999917984009 -15.677000045776367,-12.210000038146973 -15.677000045776367,-12.210000038146973 C-13.166000366210938,-21.75200080871582 -3.2219998836517334,-27.37700080871582 6.320000171661377,-24.865999221801758 C6.320000171661377,-24.865999221801758 11.843999862670898,-23.358999252319336 11.843999862670898,-23.358999252319336 C15.381999969482422,-22.42799949645996 18.382999420166016,-20.475000381469727 20.628999710083008,-17.89900016784668 C20.21500015258789,-18.04199981689453 19.792999267578125,-18.170000076293945 19.363000869750977,-18.283000946044922 C19.363000869750977,-18.283000946044922 13.83899974822998,-19.790000915527344 13.83899974822998,-19.790000915527344 C4.296999931335449,-22.301000595092773 -5.6479997634887695,-16.676000595092773 -8.159000396728516,-7.133999824523926 C-8.159000396728516,-7.133999824523926 -12.477999687194824,8.836999893188477 -12.477999687194824,8.836999893188477z"/></g></g><g transform="matrix(1,0,0,1,152.37498474121094,65.54399871826172)" opacity="1" style="display: block;"><g opacity="1" transform="matrix(1,0,0,1,0,0)"><path class="secondary" fill="rgb(58,51,71)" fill-opacity="1" d=" M8.215999603271484,-0.11299999803304672 C8.215999603271484,-0.11299999803304672 21.607999801635742,3.553999900817871 21.607999801635742,3.553999900817871 C20.18600082397461,-2.75600004196167 15.442000389099121,-8.107999801635742 8.79800033569336,-9.855999946594238 C8.79800033569336,-9.855999946594238 3.2730000019073486,-11.36299991607666 3.2730000019073486,-11.36299991607666 C-6.269000053405762,-13.87399959564209 -16.21299934387207,-8.24899959564209 -18.724000930786133,1.2929999828338623 C-18.724000930786133,1.2929999828338623 -21.607999801635742,11.958000183105469 -21.607999801635742,11.958000183105469 C-21.607999801635742,11.958000183105469 -21.597999572753906,11.961000442504883 -21.597999572753906,11.961000442504883 C-20.761999130249023,8.803000450134277 -17.417999267578125,6.945000171661377 -14.260000228881836,7.781000137329102 C-14.260000228881836,7.781000137329102 -8.315999984741211,9.359999656677246 -8.315999984741211,9.359999656677246 C-6.551000118255615,9.824000358581543 -4.693999767303467,9.545999526977539 -3.2079999446868896,8.710000038146973 C-1.722000002861023,7.874000072479248 -0.5139999985694885,6.388999938964844 -0.05000000074505806,4.624000072479248 C0.972000002861023,1.0019999742507935 4.593999862670898,-1.0420000553131104 8.215999603271484,-0.11299999803304672z"/></g></g><g transform="matrix(1,0,0,1,139.8839874267578,65.60200500488281)" opacity="0.5" style="mix-blend-mode: multiply; display: block;"><g opacity="1" transform="matrix(1,0,0,1,0,0)"><path class="secondary" fill="rgb(58,51,71)" fill-opacity="1" d=" M0.7350000143051147,8.388999938964844 C0.7350000143051147,8.388999938964844 3.880000114440918,-3.1429998874664307 3.880000114440918,-3.1429998874664307 C4.831999778747559,-6.604000091552734 6.685999870300293,-9.586999893188477 9.116999626159668,-11.902999877929688 C1.9850000143051147,-11.093000411987305 -4.308000087738037,-6.079999923706055 -6.232999801635742,1.2350000143051147 C-6.232999801635742,1.2350000143051147 -9.116999626159668,11.901000022888184 -9.116999626159668,11.901000022888184 C-9.116999626159668,11.901000022888184 -9.107000350952148,11.902999877929688 -9.107000350952148,11.902999877929688 C-8.270999908447266,8.744999885559082 -4.927999973297119,6.888000011444092 -1.7699999809265137,7.723999977111816 C-1.7699999809265137,7.723999977111816 0.7350000143051147,8.388999938964844 0.7350000143051147,8.388999938964844z"/></g></g><g transform="matrix(1,0,0,1,151.56298828125,81.70399475097656)" opacity="1" style="display: block;"><g opacity="1" transform="matrix(1,0,0,1,0,0)"><path stroke-linecap="round" stroke-linejoin="round" fill-opacity="0" class="primary" stroke="rgb(18,19,49)" stroke-opacity="1" stroke-width="7" d=" M8.102999687194824,27.922000885009766 C8.102999687194824,27.922000885009766 -9.574999809265137,23.201000213623047 -9.574999809265137,23.201000213623047 C-19.117000579833984,20.690000534057617 -24.843000411987305,10.746999740600586 -22.231000900268555,1.1039999723434448 C-22.231000900268555,1.1039999723434448 -17.91200065612793,-14.866999626159668 -17.91200065612793,-14.866999626159668 C-15.401000022888184,-24.409000396728516 -5.456999778747559,-30.034000396728516 4.085000038146973,-27.523000717163086 C4.085000038146973,-27.523000717163086 9.609999656677246,-26.016000747680664 9.609999656677246,-26.016000747680664 C19.152000427246094,-23.5049991607666 24.777000427246094,-13.560999870300293 22.266000747680664,-4.019000053405762 C22.266000747680664,-4.019000053405762 14.732000350952148,24.104999542236328 14.732000350952148,24.104999542236328 C13.928000450134277,27.01799964904785 10.914999961853027,28.72599983215332 8.102999687194824,27.922000885009766z"/></g></g></g></g></svg>