<svg xmlns="http://www.w3.org/2000/svg" xmlns:xlink="http://www.w3.org/1999/xlink" viewBox="0 0 430 430" width="430" height="430" preserveAspectRatio="xMidYMid meet" style="width: 100%; height: 100%; transform: translate3d(0px, 0px, 0px); content-visibility: visible;"><defs><clipPath id="__lottie_element_2068"><rect width="430" height="430" x="0" y="0"/></clipPath><clipPath id="__lottie_element_2070"><path d="M0,0 L430,0 L430,430 L0,430z"/></clipPath></defs><g clip-path="url(#__lottie_element_2068)"><g clip-path="url(#__lottie_element_2070)" transform="matrix(1,0,0,1,0,0)" opacity="1" style="display: block;"><g transform="matrix(0.9999966621398926,0,0,0.9999966621398926,277.27679443359375,314.99957275390625)" opacity="1" style="display: block;"><path class="primary" fill="rgb(146,20,12)" fill-opacity="1" d=" M-72.2770004272461,-46.10200119018555 C-51.900001525878906,-2.4010000228881836 -11.145999908447266,85 -11.145999908447266,85 C-11.145999908447266,85 13.895999908447266,29.79199981689453 13.895999908447266,29.79199981689453 C13.895999908447266,29.79199981689453 72.2770004272461,46.09199905395508 72.2770004272461,46.09199905395508 C72.2770004272461,46.09199905395508 31.523000717163086,-41.303001403808594 11.145999908447266,-85"/><path class="primary" fill="rgb(146,20,12)" fill-opacity="0.5" d=" M-72.2770004272461,-46.10200119018555 C-51.900001525878906,-2.4010000228881836 -11.145999908447266,85 -11.145999908447266,85 C-11.145999908447266,85 13.895999908447266,29.79199981689453 13.895999908447266,29.79199981689453 C13.895999908447266,29.79199981689453 72.2770004272461,46.09199905395508 72.2770004272461,46.09199905395508 C72.2770004272461,46.09199905395508 31.523000717163086,-41.303001403808594 11.145999908447266,-85" style="mix-blend-mode: multiply;"/><g opacity="1" transform="matrix(1,0,0,1,0,0)"/></g><g transform="matrix(0.9999966621398926,0,0,0.9999966621398926,277.27679443359375,314.99957275390625)" opacity="1" style="display: block;"><path class="primary" fill="rgb(146,20,12)" fill-opacity="1" d=" M-33.645999908447266,-69.5 C-33.645999908447266,-69.5 13.895999908447266,29.79199981689453 13.895999908447266,29.79199981689453 C13.895999908447266,29.79199981689453 72.2770004272461,46.09199905395508 72.2770004272461,46.09199905395508 C72.2770004272461,46.09199905395508 31.523000717163086,-41.303001403808594 11.145999908447266,-85"/><g opacity="1" transform="matrix(1,0,0,1,0,0)"/></g><g transform="matrix(0.9999966621398926,0,0,0.9999966621398926,152.27720642089844,314.99957275390625)" opacity="1" style="display: block;"><path class="primary" fill="rgb(146,20,12)" fill-opacity="1" d=" M72.2770004272461,-46.09199905395508 C51.900001525878906,-2.3949999809265137 11.145999908447266,85 11.145999908447266,85 C11.145999908447266,85 -13.895999908447266,29.79199981689453 -13.895999908447266,29.79199981689453 C-13.895999908447266,29.79199981689453 -72.2770004272461,46.10200119018555 -72.2770004272461,46.10200119018555 C-72.2770004272461,46.10200119018555 -31.523000717163086,-41.29899978637695 -11.145999908447266,-85"/><path class="primary" fill="rgb(146,20,12)" fill-opacity="0.5" d=" M72.2770004272461,-46.09199905395508 C51.900001525878906,-2.3949999809265137 11.145999908447266,85 11.145999908447266,85 C11.145999908447266,85 -13.895999908447266,29.79199981689453 -13.895999908447266,29.79199981689453 C-13.895999908447266,29.79199981689453 -72.2770004272461,46.10200119018555 -72.2770004272461,46.10200119018555 C-72.2770004272461,46.10200119018555 -31.523000717163086,-41.29899978637695 -11.145999908447266,-85" style="mix-blend-mode: multiply;"/><g opacity="1" transform="matrix(1,0,0,1,0,0)"/></g><g transform="matrix(0.9999966621398926,0,0,0.9999966621398926,152.27720642089844,314.99957275390625)" opacity="1" style="display: block;"><path class="primary" fill="rgb(146,20,12)" fill-opacity="1" d=" M72.2770004272461,-46.09199905395508 C72.2770004272461,-46.09199905395508 11.145999908447266,85 11.145999908447266,85 C11.145999908447266,85 -13.895999908447266,29.79199981689453 -13.895999908447266,29.79199981689453 C-13.895999908447266,29.79199981689453 35.823001861572266,-86.70600128173828 35.823001861572266,-86.70600128173828"/><g opacity="1" transform="matrix(1,0,0,1,0,0)"/></g><g transform="matrix(0.9999966621398926,0,0,0.9999966621398926,214.9949951171875,180.0030059814453)" opacity="1" style="display: block;"><path class="tertiary" fill="rgb(242,76,0)" fill-opacity="1" d=" M142.92,15.61 C152.36,7.35 152.36,-7.34 142.92,-15.6 C142.92,-15.6 128.29,-28.41 128.29,-28.41 C125.13,-31.18 123.95,-35.58 125.31,-39.56 C125.31,-39.56 131.57,-57.93 131.57,-57.93 C135.63,-69.81 128.27,-82.55 115.94,-84.97 C115.94,-84.97 96.9,-88.72 96.9,-88.72 C92.77,-89.53 89.54,-92.76 88.72,-96.89 C88.72,-96.89 84.98,-115.94 84.98,-115.94 C82.55,-128.26 69.82,-135.62 57.93,-131.57 C57.93,-131.57 39.56,-125.3 39.56,-125.3 C35.58,-123.95 31.18,-125.13 28.41,-128.29 C28.41,-128.29 15.61,-142.92 15.61,-142.92 C7.34,-152.36 -7.34,-152.36 -15.61,-142.92 C-15.61,-142.92 -28.41,-128.29 -28.41,-128.29 C-31.18,-125.13 -35.58,-123.95 -39.56,-125.3 C-39.56,-125.3 -57.93,-131.57 -57.93,-131.57 C-69.82,-135.62 -82.55,-128.26 -84.98,-115.94 C-84.98,-115.94 -88.72,-96.89 -88.72,-96.89 C-89.54,-92.76 -92.77,-89.53 -96.9,-88.72 C-96.9,-88.72 -115.94,-84.97 -115.94,-84.97 C-128.27,-82.55 -135.62,-69.82 -131.57,-57.93 C-131.57,-57.93 -125.31,-39.56 -125.31,-39.56 C-123.95,-35.58 -125.13,-31.18 -128.29,-28.41 C-128.29,-28.41 -142.92,-15.6 -142.92,-15.6 C-152.36,-7.34 -152.36,7.35 -142.92,15.61 C-142.92,15.61 -128.29,28.41 -128.29,28.41 C-125.13,31.18 -123.95,35.59 -125.31,39.56 C-125.31,39.56 -131.57,57.93 -131.57,57.93 C-135.63,69.82 -128.27,82.56 -115.94,84.98 C-115.94,84.98 -96.9,88.73 -96.9,88.73 C-92.77,89.54 -89.54,92.77 -88.72,96.9 C-88.72,96.9 -84.98,115.94 -84.98,115.94 C-82.55,128.26 -69.82,135.62 -57.94,131.57 C-57.94,131.57 -39.56,125.31 -39.56,125.31 C-35.58,123.95 -31.18,125.13 -28.41,128.29 C-28.41,128.29 -15.61,142.92 -15.61,142.92 C-7.34,152.36 7.34,152.36 15.61,142.92 C15.61,142.92 28.41,128.3 28.41,128.3 C31.18,125.13 35.58,123.95 39.56,125.31 C39.56,125.31 57.93,131.57 57.93,131.57 C69.82,135.63 82.55,128.27 84.98,115.95 C84.98,115.95 88.72,96.9 88.72,96.9 C89.54,92.77 92.77,89.54 96.9,88.73 C96.9,88.73 115.94,84.98 115.94,84.98 C128.27,82.56 135.62,69.82 131.57,57.93 C131.57,57.93 125.31,39.56 125.31,39.56 C123.95,35.59 125.13,31.18 128.29,28.41 C128.29,28.41 142.92,15.61 142.92,15.61z"/><g opacity="1" transform="matrix(1,0.000006499214123323327,-0.000006499214123323327,1,0,0)"/></g><g transform="matrix(0.9999966621398926,0.000006499192295450484,-0.000006499192295450484,0.9999966621398926,215,180)" opacity="1" style="display: block;"><g opacity="1" transform="matrix(1,0,0,1,0,0)"><g opacity="1" transform="matrix(1,0,0,1,0,0)"><path class="secondary" fill="rgb(255,199,56)" fill-opacity="1" d=" M0,100 C55.22800064086914,100 100,55.22800064086914 100,0 C100,-55.22800064086914 55.22800064086914,-100 0,-100 C-55.22800064086914,-100 -100,-55.22800064086914 -100,0 C-100,55.22800064086914 -55.22800064086914,100 0,100z"/></g><path class="secondary" fill="rgb(255,199,56)" fill-opacity="1" d=" M-15.45,-19.17 C-15.45,-19.17 0,-50.31 0,-50.31 C0,-50.31 15.45,-19.17 15.45,-19.17 C15.45,-19.17 50,-14.17 50,-14.17 C50,-14.17 24.99,10.08 24.99,10.08 C24.99,10.08 30.91,44.31 30.91,44.31 C30.91,44.31 0,28.15 0,28.15 C0,28.15 -30.91,44.31 -30.91,44.31 C-30.91,44.31 -24.99,10.08 -24.99,10.08 C-24.99,10.08 -50,-14.17 -50,-14.17 C-50,-14.17 -15.45,-19.17 -15.45,-19.17z"/><path class="secondary" fill="rgb(255,199,56)" fill-opacity="1" d=" M-15.45,-19.17 C-15.45,-19.17 0,-50.31 0,-50.31 C0,-50.31 15.45,-19.17 15.45,-19.17 C15.45,-19.17 50,-14.17 50,-14.17 C50,-14.17 24.99,10.08 24.99,10.08 C24.99,10.08 30.91,44.31 30.91,44.31 C30.91,44.31 0,28.15 0,28.15 C0,28.15 -30.91,44.31 -30.91,44.31 C-30.91,44.31 -24.99,10.08 -24.99,10.08 C-24.99,10.08 -50,-14.17 -50,-14.17 C-50,-14.17 -15.45,-19.17 -15.45,-19.17z" style="mix-blend-mode: multiply;"/><g opacity="1" transform="matrix(1,0,0,1,0,-3)"/></g></g><g transform="matrix(0.9999966621398926,0,0,0.9999966621398926,203.9070281982422,191.5929718017578)" opacity="0.5" style="mix-blend-mode: multiply; display: block;"><g opacity="1" transform="matrix(1,0,0,1,0,0)"><path class="secondary" fill="rgb(255,199,56)" fill-opacity="1" d=" M88.90699768066406,51.72100067138672 C71.73899841308594,65.59700012207031 49.887001037597656,73.90699768066406 26.093000411987305,73.90699768066406 C-29.135000228881836,73.90699768066406 -73.90699768066406,29.135000228881836 -73.90699768066406,-26.093000411987305 C-73.90699768066406,-49.887001037597656 -65.59700012207031,-71.73899841308594 -51.72100067138672,-88.90699768066406 C-74.40299987792969,-70.57499694824219 -88.90699768066406,-42.52799987792969 -88.90699768066406,-11.093000411987305 C-88.90699768066406,44.1349983215332 -44.1349983215332,88.90699768066406 11.093000411987305,88.90699768066406 C42.52799987792969,88.90699768066406 70.57499694824219,74.4020004272461 88.90699768066406,51.72100067138672z"/></g></g></g></g></svg>