<svg xmlns="http://www.w3.org/2000/svg" xmlns:xlink="http://www.w3.org/1999/xlink" viewBox="0 0 430 430" width="430" height="430" preserveAspectRatio="xMidYMid meet" style="width: 100%; height: 100%; transform: translate3d(0px, 0px, 0px); content-visibility: visible;"><defs><clipPath id="__lottie_element_3329"><rect width="430" height="430" x="0" y="0"/></clipPath><clipPath id="__lottie_element_3331"><path d="M0,0 L430,0 L430,430 L0,430z"/></clipPath><g id="__lottie_element_3350"><g transform="matrix(1,-0.000009978405614674557,0.000009978405614674557,1,224.0003204345703,238.9989013671875)" opacity="1" style="display: block;"><g opacity="1" transform="matrix(1,0,0,1,0,-2)"><path fill="rgb(255,0,71)" fill-opacity="1" d=" M98.3290023803711,-39.54199981689453 C98.3290023803711,-39.54199981689453 97.99400329589844,56.005001068115234 97.99400329589844,56.005001068115234 C97.99400329589844,56.005001068115234 70.50700378417969,106.29199981689453 -9.055000305175781,106.03399658203125 C-89.72000122070312,105.77200317382812 -117.9010009765625,56.005001068115234 -117.9010009765625,56.005001068115234 C-117.9010009765625,56.005001068115234 -227.5,-104.66699981689453 -227.5,-104.66699981689453"/><path fill="rgb(255,0,71)" fill-opacity="0.5" d=" M98.3290023803711,-39.54199981689453 C98.3290023803711,-39.54199981689453 97.99400329589844,56.005001068115234 97.99400329589844,56.005001068115234 C97.99400329589844,56.005001068115234 70.50700378417969,106.29199981689453 -9.055000305175781,106.03399658203125 C-89.72000122070312,105.77200317382812 -117.9010009765625,56.005001068115234 -117.9010009765625,56.005001068115234 C-117.9010009765625,56.005001068115234 -227.5,-104.66699981689453 -227.5,-104.66699981689453" style="mix-blend-mode: multiply;"/></g></g></g><mask id="__lottie_element_3350_1" mask-type="alpha"><use xmlns:ns1="http://www.w3.org/1999/xlink" ns1:href="#__lottie_element_3350"/></mask></defs><g clip-path="url(#__lottie_element_3329)"><g clip-path="url(#__lottie_element_3331)" transform="matrix(1,0,0,1,0,0)" opacity="1" style="display: block;"><g transform="matrix(1,-0.000009978405614674557,0.000009978405614674557,1,224.0003204345703,238.9989013671875)" opacity="1" style="display: block;"><g opacity="1" transform="matrix(1,0,0,1,0,-2)"><path class="tertiary" fill="rgb(58,51,71)" fill-opacity="1" d=" M98.3290023803711,-39.54199981689453 C98.3290023803711,-39.54199981689453 97.99400329589844,56.005001068115234 97.99400329589844,56.005001068115234 C97.99400329589844,56.005001068115234 70.50700378417969,106.29199981689453 -9.055000305175781,106.03399658203125 C-89.72000122070312,105.77200317382812 -117.9010009765625,56.005001068115234 -117.9010009765625,56.005001068115234 C-117.9010009765625,56.005001068115234 -117.5,-39.66699981689453 -117.5,-39.66699981689453"/><path class="tertiary" fill="rgb(58,51,71)" fill-opacity="0.5" d=" M98.3290023803711,-39.54199981689453 C98.3290023803711,-39.54199981689453 97.99400329589844,56.005001068115234 97.99400329589844,56.005001068115234 C97.99400329589844,56.005001068115234 70.50700378417969,106.29199981689453 -9.055000305175781,106.03399658203125 C-89.72000122070312,105.77200317382812 -117.9010009765625,56.005001068115234 -117.9010009765625,56.005001068115234 C-117.9010009765625,56.005001068115234 -117.5,-39.66699981689453 -117.5,-39.66699981689453" style="mix-blend-mode: multiply;"/></g></g><g transform="matrix(1,-0.000009978405614674557,0.000009978405614674557,1,214.5003204345703,238.99899291992188)" opacity="1" style="display: block;"><g opacity="1" transform="matrix(1,0,0,1,0,-2)"><path class="tertiary" fill="rgb(58,51,71)" fill-opacity="1" d=" M180.44000244140625,-92.96900177001953 C180.44000244140625,-92.96900177001953 0.020999999716877937,-156.781005859375 0.020999999716877937,-156.781005859375 C0.020999999716877937,-156.781005859375 -179.468994140625,-93 -179.468994140625,-93 C-179.468994140625,-93 0.020999999716877937,-29.2189998626709 0.020999999716877937,-29.2189998626709 C0.020999999716877937,-29.2189998626709 180.44000244140625,-92.96900177001953 180.44000244140625,-92.96900177001953z M-177.2169952392578,-93.02999877929688 C-178.593994140625,-93.03099822998047 -179.31500244140625,-93.03099822998047 -179.31500244140625,-93.03099822998047 C-179.31500244140625,-93.03099822998047 -179.468994140625,-64 -179.468994140625,-64 C-179.468994140625,-64 0.020999999716877937,-0.21899999678134918 0.020999999716877937,-0.21899999678134918 C0.020999999716877937,-0.21899999678134918 180.47000122070312,-64.25 180.47000122070312,-64.25 C180.47000122070312,-64.25 180.47000122070312,-64.25 180.47000122070312,-64.25 C180.47000122070312,-64.25 180.5,-92.93699645996094 180.5,-92.93699645996094 C180.5,-92.93699645996094 178.42100524902344,-92.93800354003906 174.5780029296875,-92.93900299072266"/></g></g><g mask="url(#__lottie_element_3350_1)" style="mix-blend-mode: multiply; display: block;"><g transform="matrix(1,-0.000009978405614674557,0.000009978405614674557,1,124.7612533569336,232.10989379882812)" opacity="0.5"><g opacity="1" transform="matrix(1,0,0,1,0,0)" style="mix-blend-mode: multiply;"><path class="tertiary" fill="rgb(58,51,71)" fill-opacity="1" d=" M89.73999786376953,-23.95199966430664 C89.73999786376953,-23.95199966430664 89.73999786376953,5.047999858856201 89.73999786376953,5.047999858856201 C89.73999786376953,5.047999858856201 88.5009994506836,6.285999774932861 88.5009994506836,6.285999774932861 C88.5009994506836,6.285999774932861 7.28000020980835,87.45800018310547 7.28000020980835,87.45800018310547 C-2.7090001106262207,80.40399932861328 -12.210000038146973,71.5739974975586 -18.68000030517578,61.268001556396484 C-18.714000701904297,60.215999603271484 -18.22100067138672,-32.29499816894531 -18.239999771118164,-33.321998596191406 C-18.239999771118164,-33.321998596191406 -87.73999786376953,-58.02199935913086 -87.73999786376953,-58.02199935913086 C-88.91999816894531,-58.44200134277344 -89.7300033569336,-59.5620002746582 -89.73999786376953,-60.821998596191406 C-89.56199645996094,-61.417999267578125 -90.10399627685547,-87.89099884033203 -88.97000122070312,-87.4520034790039 C-88.97000122070312,-87.4520034790039 89.73999786376953,-23.95199966430664 89.73999786376953,-23.95199966430664z"/></g></g></g><g transform="matrix(1,-0.000009978405614674557,0.000009978405614674557,1,224.0003204345703,238.9989013671875)" opacity="1" style="display: block;"><g opacity="1" transform="matrix(1,0,0,1,0,-2)"><path stroke-linecap="round" stroke-linejoin="round" fill-opacity="0" class="primary" stroke="rgb(18,19,49)" stroke-opacity="1" stroke-width="7" d=" M98.29000091552734,-37.79199981689453 C98.29000091552734,-37.79199981689453 97.99400329589844,56.005001068115234 97.99400329589844,56.005001068115234 C97.99400329589844,56.005001068115234 70.50700378417969,106.29199981689453 -9.055000305175781,106.03399658203125 C-89.72000122070312,105.77200317382812 -117.9010009765625,56.005001068115234 -117.9010009765625,56.005001068115234 C-117.9010009765625,56.005001068115234 -117.5,-37.79199981689453 -117.5,-37.79199981689453"/></g></g><g transform="matrix(1,-0.000009978405614674557,0.000009978405614674557,1,214.5003204345703,238.99899291992188)" opacity="1" style="display: block;"><g opacity="1" transform="matrix(1,0,0,1,0,-2)"><path stroke-linecap="round" stroke-linejoin="round" fill-opacity="0" class="primary" stroke="rgb(18,19,49)" stroke-opacity="1" stroke-width="7" d=" M180.44000244140625,-92.96900177001953 C180.44000244140625,-92.96900177001953 0.020999999716877937,-156.781005859375 0.020999999716877937,-156.781005859375 C0.020999999716877937,-156.781005859375 -179.468994140625,-93 -179.468994140625,-93 C-179.468994140625,-93 0.020999999716877937,-29.2189998626709 0.020999999716877937,-29.2189998626709 C0.020999999716877937,-29.2189998626709 180.44000244140625,-92.96900177001953 180.44000244140625,-92.96900177001953z M-177.2169952392578,-93.02999877929688 C-178.593994140625,-93.03099822998047 -179.31500244140625,-93.03099822998047 -179.31500244140625,-93.03099822998047 C-179.31500244140625,-93.03099822998047 -179.468994140625,-64 -179.468994140625,-64 C-179.468994140625,-64 0.020999999716877937,-0.21899999678134918 0.020999999716877937,-0.21899999678134918 C0.020999999716877937,-0.21899999678134918 180.47000122070312,-64.25 180.47000122070312,-64.25 C180.47000122070312,-64.25 180.47000122070312,-64.25 180.47000122070312,-64.25 C180.47000122070312,-64.25 180.5,-92.93699645996094 180.5,-92.93699645996094 C180.5,-92.93699645996094 178.42100524902344,-92.93800354003906 174.5780029296875,-92.93900299072266"/></g></g><g transform="matrix(1,-0.000009978405614674557,0.000009978405614674557,1,215.0000762939453,214.99899291992188)" opacity="1" style="display: block;"><g opacity="1" transform="matrix(1,0,0,1,0,0)"><path stroke-linecap="round" stroke-linejoin="round" fill-opacity="0" class="secondary" stroke="rgb(255,199,56)" stroke-opacity="1" stroke-width="7" d=" M0.5,-72 C0.5,-72 77.5,-44 77.5,-44 C77.5,-44 77.50054168701172,60.99962615966797 77.50054168701172,60.99962615966797 M77.50057220458984,63.4996223449707 C77.50057220458984,63.4996223449707 77.50084686279297,87.3436050415039 77.50084686279297,87.3436050415039"/><path stroke-linecap="round" stroke-linejoin="round" fill-opacity="0" class="secondary" stroke="rgb(255,199,56)" stroke-opacity="1" stroke-width="15.05" d=" M77.50057220458984,63.4996223449707 C77.50057220458984,63.4996223449707 77.50084686279297,87.3436050415039 77.50084686279297,87.3436050415039"/></g></g></g></g></svg>